<?xml version="1.0" encoding="UTF-8" standalone="no"?>
<svg
   xmlns:dc="http://purl.org/dc/elements/1.1/"
   xmlns:cc="http://creativecommons.org/ns#"
   xmlns:rdf="http://www.w3.org/1999/02/22-rdf-syntax-ns#"
   xmlns:svg="http://www.w3.org/2000/svg"
   xmlns="http://www.w3.org/2000/svg"
   id="svg8"
   version="1.1"
   viewBox="0 0 177.6071 52.572906"
   height="52.572906mm"
   width="177.6071mm">
  <defs
     id="defs2" />
  <metadata
     id="metadata5">
    <rdf:RDF>
      <cc:Work
         rdf:about="">
        <dc:format>image/svg+xml</dc:format>
        <dc:type
           rdf:resource="http://purl.org/dc/dcmitype/StillImage" />
        <dc:title></dc:title>
      </cc:Work>
    </rdf:RDF>
  </metadata>
  <g
     transform="translate(-3.8125,-96.588821)"
     id="layer1">
    <rect
       ry="0"
       y="111.79167"
       x="23.8125"
       height="18.520834"
       width="18.520821"
       id="rect4506"
       style="color:#000000;overflow:visible;opacity:1;fill:#e6e6e6;fill-opacity:1;stroke:none;stroke-width:0.40000001;stroke-linecap:round;stroke-linejoin:miter;stroke-miterlimit:4;stroke-dasharray:none;stroke-dashoffset:0;stroke-opacity:1" />
    <text
       id="text4510"
       y="138.06102"
       x="56.539734"
       style="font-style:normal;font-variant:normal;font-weight:normal;font-stretch:normal;font-size:5.29166651px;line-height:6.61458302px;font-family:sans-serif;-inkscape-font-specification:sans-serif;text-align:center;letter-spacing:0px;word-spacing:0px;text-anchor:middle;fill:#000000;fill-opacity:1;stroke:none;stroke-width:0.26458332px;stroke-linecap:butt;stroke-linejoin:miter;stroke-opacity:1"
       xml:space="preserve"><tspan
         style="font-style:normal;font-variant:normal;font-weight:normal;font-stretch:normal;font-family:sans-serif;-inkscape-font-specification:sans-serif;text-align:center;text-anchor:middle;stroke-width:0.26458332px"
         y="138.06102"
         x="56.539734"
         id="tspan4508">Right</tspan></text>
    <path
       style="fill:#55ddff;fill-rule:evenodd;stroke:none;stroke-width:0.40000001;stroke-linecap:round;stroke-linejoin:miter;stroke-miterlimit:4;stroke-dasharray:none;stroke-opacity:1"
       d="m 34.395833,130.3125 -1.322916,-9.26041 2.645833,-9.26042 h 6.614583 v 18.52083 z"
       id="path4522" />
    <path
       id="path4518"
       d="m 34.395833,130.3125 -1.322916,-9.26041 2.645833,-9.26042"
       style="fill:none;fill-rule:evenodd;stroke:#000000;stroke-width:0.40000001;stroke-linecap:round;stroke-linejoin:miter;stroke-miterlimit:4;stroke-dasharray:none;stroke-opacity:1" />
    <g
       transform="translate(1.3227248,-1.3214414)"
       id="g4526">
      <path
         style="color:#000000;overflow:visible;opacity:0.5;fill:#ff7f2a;fill-opacity:1;stroke:none;stroke-width:1;stroke-linecap:round;stroke-linejoin:miter;stroke-miterlimit:4;stroke-dasharray:none;stroke-dashoffset:0;stroke-opacity:1"
         id="path4516"
         d="m 33.072915,122.37316 a 1.3229166,1.3229166 0 0 1 -1.315215,1.32474 1.3229166,1.3229166 0 0 1 -1.330547,-1.30934 1.3229166,1.3229166 0 0 1 1.303441,-1.33633 1.3229166,1.3229166 0 0 1 1.342081,1.29752" />
      <path
         d="m 32.808525,122.37353 a 1.0585263,1.0585263 0 0 1 -1.052364,1.05999 1.0585263,1.0585263 0 0 1 -1.064632,-1.04767 1.0585263,1.0585263 0 0 1 1.042943,-1.06925 1.0585263,1.0585263 0 0 1 1.073861,1.0382"
         id="path4520"
         style="color:#000000;overflow:visible;opacity:1;fill:#ffffff;fill-opacity:1;stroke:none;stroke-width:0.80014586;stroke-linecap:round;stroke-linejoin:miter;stroke-miterlimit:4;stroke-dasharray:none;stroke-dashoffset:0;stroke-opacity:1" />
    </g>
    <rect
       style="color:#000000;overflow:visible;opacity:1;fill:#e6e6e6;fill-opacity:1;stroke:none;stroke-width:0.40000001;stroke-linecap:round;stroke-linejoin:miter;stroke-miterlimit:4;stroke-dasharray:none;stroke-dashoffset:0;stroke-opacity:1"
       id="rect4528"
       width="18.520821"
       height="18.520834"
       x="47.625195"
       y="111.79167"
       ry="0" />
    <path
       id="path4530"
       d="m 58.208526,130.3125 -1.322916,-9.26041 -1.93e-4,-9.26042 H 47.625 v 18.52083 z"
       style="fill:#55ddff;fill-rule:evenodd;stroke:none;stroke-width:0.40000001;stroke-linecap:round;stroke-linejoin:miter;stroke-miterlimit:4;stroke-dasharray:none;stroke-opacity:1" />
    <path
       style="fill:none;fill-rule:evenodd;stroke:#000000;stroke-width:0.40000001;stroke-linecap:round;stroke-linejoin:miter;stroke-miterlimit:4;stroke-dasharray:none;stroke-opacity:1"
       d="m 58.208526,130.3125 -1.322916,-9.26041 -1.93e-4,-9.26042"
       id="path4532" />
    <g
       id="g4538"
       transform="translate(25.135418,-1.3214414)">
      <path
         d="m 33.072915,122.37316 a 1.3229166,1.3229166 0 0 1 -1.315215,1.32474 1.3229166,1.3229166 0 0 1 -1.330547,-1.30934 1.3229166,1.3229166 0 0 1 1.303441,-1.33633 1.3229166,1.3229166 0 0 1 1.342081,1.29752"
         id="path4534"
         style="color:#000000;overflow:visible;opacity:0.5;fill:#ff7f2a;fill-opacity:1;stroke:none;stroke-width:1;stroke-linecap:round;stroke-linejoin:miter;stroke-miterlimit:4;stroke-dasharray:none;stroke-dashoffset:0;stroke-opacity:1" />
      <path
         style="color:#000000;overflow:visible;opacity:1;fill:#ffffff;fill-opacity:1;stroke:none;stroke-width:0.80014586;stroke-linecap:round;stroke-linejoin:miter;stroke-miterlimit:4;stroke-dasharray:none;stroke-dashoffset:0;stroke-opacity:1"
         id="path4536"
         d="m 32.808525,122.37353 a 1.0585263,1.0585263 0 0 1 -1.052364,1.05999 1.0585263,1.0585263 0 0 1 -1.064632,-1.04767 1.0585263,1.0585263 0 0 1 1.042943,-1.06925 1.0585263,1.0585263 0 0 1 1.073861,1.0382" />
    </g>
    <rect
       transform="rotate(-90)"
       ry="0"
       y="71.4375"
       x="-130.3125"
       height="18.520834"
       width="18.520821"
       id="rect4540"
       style="color:#000000;overflow:visible;opacity:1;fill:#e6e6e6;fill-opacity:1;stroke:none;stroke-width:0.40000001;stroke-linecap:round;stroke-linejoin:miter;stroke-miterlimit:4;stroke-dasharray:none;stroke-dashoffset:0;stroke-opacity:1" />
    <path
       style="fill:#55ddff;fill-rule:evenodd;stroke:none;stroke-width:0.40000001;stroke-linecap:round;stroke-linejoin:miter;stroke-miterlimit:4;stroke-dasharray:none;stroke-opacity:1"
       d="m 89.958333,126.34375 -9.260423,-5.29165 -7.937493,9.2604 h 2.645833 l 14.55207,2.1e-4 z"
       id="path4542" />
    <path
       id="path4544"
       d="m 89.958333,126.34375 -9.260423,-5.29165 -7.937493,9.2604"
       style="fill:none;fill-rule:evenodd;stroke:#000000;stroke-width:0.40000001;stroke-linecap:round;stroke-linejoin:miter;stroke-miterlimit:4;stroke-dasharray:none;stroke-opacity:1" />
    <g
       transform="rotate(-90,55.563335,97.238951)"
       id="g4550">
      <path
         style="color:#000000;overflow:visible;opacity:0.5;fill:#ff7f2a;fill-opacity:1;stroke:none;stroke-width:1;stroke-linecap:round;stroke-linejoin:miter;stroke-miterlimit:4;stroke-dasharray:none;stroke-dashoffset:0;stroke-opacity:1"
         id="path4546"
         d="m 33.072915,122.37316 a 1.3229166,1.3229166 0 0 1 -1.315215,1.32474 1.3229166,1.3229166 0 0 1 -1.330547,-1.30934 1.3229166,1.3229166 0 0 1 1.303441,-1.33633 1.3229166,1.3229166 0 0 1 1.342081,1.29752" />
      <path
         d="m 32.808525,122.37353 a 1.0585263,1.0585263 0 0 1 -1.052364,1.05999 1.0585263,1.0585263 0 0 1 -1.064632,-1.04767 1.0585263,1.0585263 0 0 1 1.042943,-1.06925 1.0585263,1.0585263 0 0 1 1.073861,1.0382"
         id="path4548"
         style="color:#000000;overflow:visible;opacity:1;fill:#ffffff;fill-opacity:1;stroke:none;stroke-width:0.80014586;stroke-linecap:round;stroke-linejoin:miter;stroke-miterlimit:4;stroke-dasharray:none;stroke-dashoffset:0;stroke-opacity:1" />
    </g>
    <rect
       style="color:#000000;overflow:visible;opacity:1;fill:#e6e6e6;fill-opacity:1;stroke:none;stroke-width:0.40000001;stroke-linecap:round;stroke-linejoin:miter;stroke-miterlimit:4;stroke-dasharray:none;stroke-dashoffset:0;stroke-opacity:1"
       id="rect4552"
       width="18.520821"
       height="18.520834"
       x="111.79169"
       y="-113.77084"
       ry="0"
       transform="rotate(90)" />
    <path
       id="path4554"
       d="m 96.572919,111.79167 7.937511,9.26042 7.9375,-9.2604 h -2.64584 l -11.906254,-2e-5 z"
       style="fill:#55ddff;fill-rule:evenodd;stroke:none;stroke-width:0.40000001;stroke-linecap:round;stroke-linejoin:miter;stroke-miterlimit:4;stroke-dasharray:none;stroke-opacity:1" />
    <path
       style="fill:none;fill-rule:evenodd;stroke:#000000;stroke-width:0.40000001;stroke-linecap:round;stroke-linejoin:miter;stroke-miterlimit:4;stroke-dasharray:none;stroke-opacity:1"
       d="m 96.572919,111.79167 7.937511,9.26042 7.9375,-9.2604"
       id="path4556" />
    <g
       id="g4562"
       transform="rotate(90,68.791028,158.09293)">
      <path
         d="m 33.072915,122.37316 a 1.3229166,1.3229166 0 0 1 -1.315215,1.32474 1.3229166,1.3229166 0 0 1 -1.330547,-1.30934 1.3229166,1.3229166 0 0 1 1.303441,-1.33633 1.3229166,1.3229166 0 0 1 1.342081,1.29752"
         id="path4558"
         style="color:#000000;overflow:visible;opacity:0.5;fill:#ff7f2a;fill-opacity:1;stroke:none;stroke-width:1;stroke-linecap:round;stroke-linejoin:miter;stroke-miterlimit:4;stroke-dasharray:none;stroke-dashoffset:0;stroke-opacity:1" />
      <path
         style="color:#000000;overflow:visible;opacity:1;fill:#ffffff;fill-opacity:1;stroke:none;stroke-width:0.80014586;stroke-linecap:round;stroke-linejoin:miter;stroke-miterlimit:4;stroke-dasharray:none;stroke-dashoffset:0;stroke-opacity:1"
         id="path4560"
         d="m 32.808525,122.37353 a 1.0585263,1.0585263 0 0 1 -1.052364,1.05999 1.0585263,1.0585263 0 0 1 -1.064632,-1.04767 1.0585263,1.0585263 0 0 1 1.042943,-1.06925 1.0585263,1.0585263 0 0 1 1.073861,1.0382" />
    </g>
    <rect
       style="color:#000000;overflow:visible;opacity:1;fill:#e6e6e6;fill-opacity:1;stroke:none;stroke-width:0.40000001;stroke-linecap:round;stroke-linejoin:miter;stroke-miterlimit:4;stroke-dasharray:none;stroke-dashoffset:0;stroke-opacity:1"
       id="rect4564"
       width="18.520821"
       height="18.520834"
       x="-130.3125"
       y="119.08629"
       ry="0"
       transform="rotate(-90)" />
    <path
       id="path4566"
       d="m 137.60712,126.34375 -9.26042,-5.29165 -9.28419,7.93749 v -1.32292 -15.875 h 18.52083 z"
       style="fill:#55ddff;fill-rule:evenodd;stroke:none;stroke-width:0.40000001;stroke-linecap:round;stroke-linejoin:miter;stroke-miterlimit:4;stroke-dasharray:none;stroke-opacity:1" />
    <path
       style="fill:none;fill-rule:evenodd;stroke:#000000;stroke-width:0.40000001;stroke-linecap:round;stroke-linejoin:miter;stroke-miterlimit:4;stroke-dasharray:none;stroke-opacity:1"
       d="m 137.60712,126.34375 -9.26042,-5.29165 -9.28419,7.93749"
       id="path4568" />
    <g
       id="g4574"
       transform="rotate(-90,79.387728,73.414558)">
      <path
         d="m 33.072915,122.37316 a 1.3229166,1.3229166 0 0 1 -1.315215,1.32474 1.3229166,1.3229166 0 0 1 -1.330547,-1.30934 1.3229166,1.3229166 0 0 1 1.303441,-1.33633 1.3229166,1.3229166 0 0 1 1.342081,1.29752"
         id="path4570"
         style="color:#000000;overflow:visible;opacity:0.5;fill:#ff7f2a;fill-opacity:1;stroke:none;stroke-width:1;stroke-linecap:round;stroke-linejoin:miter;stroke-miterlimit:4;stroke-dasharray:none;stroke-dashoffset:0;stroke-opacity:1" />
      <path
         style="color:#000000;overflow:visible;opacity:1;fill:#ffffff;fill-opacity:1;stroke:none;stroke-width:0.80014586;stroke-linecap:round;stroke-linejoin:miter;stroke-miterlimit:4;stroke-dasharray:none;stroke-dashoffset:0;stroke-opacity:1"
         id="path4572"
         d="m 32.808525,122.37353 a 1.0585263,1.0585263 0 0 1 -1.052364,1.05999 1.0585263,1.0585263 0 0 1 -1.064632,-1.04767 1.0585263,1.0585263 0 0 1 1.042943,-1.06925 1.0585263,1.0585263 0 0 1 1.073861,1.0382" />
    </g>
    <rect
       transform="matrix(0,1,1,0,0,0)"
       ry="0"
       y="142.89877"
       x="111.79168"
       height="18.520834"
       width="18.520821"
       id="rect4576"
       style="color:#000000;overflow:visible;opacity:1;fill:#e6e6e6;fill-opacity:1;stroke:none;stroke-width:0.40000001;stroke-linecap:round;stroke-linejoin:miter;stroke-miterlimit:4;stroke-dasharray:none;stroke-dashoffset:0;stroke-opacity:1" />
    <path
       style="fill:#55ddff;fill-rule:evenodd;stroke:none;stroke-width:0.40000001;stroke-linecap:round;stroke-linejoin:miter;stroke-miterlimit:4;stroke-dasharray:none;stroke-opacity:1"
       d="m 161.39584,111.79167 h -2.64583 l -6.59081,9.26041 -9.28419,-7.93749 v 1.32292 15.875 h 18.52083 z"
       id="path4578" />
    <path
       id="path4580"
       d="m 158.75001,111.79167 -6.59081,9.26041 -9.28419,-7.93749"
       style="fill:none;fill-rule:evenodd;stroke:#000000;stroke-width:0.40000001;stroke-linecap:round;stroke-linejoin:miter;stroke-miterlimit:4;stroke-dasharray:none;stroke-opacity:1" />
    <g
       transform="matrix(0,1,1,0,29.78567,89.301894)"
       id="g4586">
      <path
         style="color:#000000;overflow:visible;opacity:0.5;fill:#ff7f2a;fill-opacity:1;stroke:none;stroke-width:1;stroke-linecap:round;stroke-linejoin:miter;stroke-miterlimit:4;stroke-dasharray:none;stroke-dashoffset:0;stroke-opacity:1"
         id="path4582"
         d="m 33.072915,122.37316 a 1.3229166,1.3229166 0 0 1 -1.315215,1.32474 1.3229166,1.3229166 0 0 1 -1.330547,-1.30934 1.3229166,1.3229166 0 0 1 1.303441,-1.33633 1.3229166,1.3229166 0 0 1 1.342081,1.29752" />
      <path
         d="m 32.808525,122.37353 a 1.0585263,1.0585263 0 0 1 -1.052364,1.05999 1.0585263,1.0585263 0 0 1 -1.064632,-1.04767 1.0585263,1.0585263 0 0 1 1.042943,-1.06925 1.0585263,1.0585263 0 0 1 1.073861,1.0382"
         id="path4584"
         style="color:#000000;overflow:visible;opacity:1;fill:#ffffff;fill-opacity:1;stroke:none;stroke-width:0.80014586;stroke-linecap:round;stroke-linejoin:miter;stroke-miterlimit:4;stroke-dasharray:none;stroke-dashoffset:0;stroke-opacity:1" />
    </g>
    <text
       xml:space="preserve"
       style="font-style:normal;font-variant:normal;font-weight:normal;font-stretch:normal;font-size:5.29166651px;line-height:6.61458302px;font-family:sans-serif;-inkscape-font-specification:sans-serif;text-align:center;letter-spacing:0px;word-spacing:0px;text-anchor:middle;fill:#000000;fill-opacity:1;stroke:none;stroke-width:0.26458332px;stroke-linecap:butt;stroke-linejoin:miter;stroke-opacity:1"
       x="33.586246"
       y="137.96652"
       id="text4590"><tspan
         id="tspan4588"
         x="33.586246"
         y="137.96652"
         style="font-style:normal;font-variant:normal;font-weight:normal;font-stretch:normal;font-family:sans-serif;-inkscape-font-specification:sans-serif;text-align:center;text-anchor:middle;stroke-width:0.26458332px">Left</tspan></text>
    <text
       xml:space="preserve"
       style="font-style:normal;font-variant:normal;font-weight:normal;font-stretch:normal;font-size:5.29166651px;line-height:6.61458302px;font-family:sans-serif;-inkscape-font-specification:sans-serif;letter-spacing:0px;word-spacing:0px;fill:#000000;fill-opacity:1;stroke:none;stroke-width:0.26458332px;stroke-linecap:butt;stroke-linejoin:miter;stroke-opacity:1"
       x="80.692192"
       y="138.06102"
       id="text4594"><tspan
         id="tspan4592"
         x="80.692192"
         y="138.06102"
         style="font-style:normal;font-variant:normal;font-weight:normal;font-stretch:normal;font-family:sans-serif;-inkscape-font-specification:sans-serif;text-align:center;text-anchor:middle;stroke-width:0.26458332px">Start</tspan></text>
    <text
       id="text4598"
       y="138.06102"
       x="104.69367"
       style="font-style:normal;font-variant:normal;font-weight:normal;font-stretch:normal;font-size:5.29166651px;line-height:6.61458302px;font-family:sans-serif;-inkscape-font-specification:sans-serif;letter-spacing:0px;word-spacing:0px;fill:#000000;fill-opacity:1;stroke:none;stroke-width:0.26458332px;stroke-linecap:butt;stroke-linejoin:miter;stroke-opacity:1"
       xml:space="preserve"><tspan
         style="font-style:normal;font-variant:normal;font-weight:normal;font-stretch:normal;font-family:sans-serif;-inkscape-font-specification:sans-serif;text-align:center;text-anchor:middle;stroke-width:0.26458332px"
         y="138.06102"
         x="104.69367"
         id="tspan4596">End</tspan></text>
    <text
       xml:space="preserve"
       style="font-style:normal;font-variant:normal;font-weight:normal;font-stretch:normal;font-size:5.29166651px;line-height:6.61458302px;font-family:sans-serif;-inkscape-font-specification:sans-serif;letter-spacing:0px;word-spacing:0px;fill:#000000;fill-opacity:1;stroke:none;stroke-width:0.26458332px;stroke-linecap:butt;stroke-linejoin:miter;stroke-opacity:1"
       x="128.31717"
       y="138.06102"
       id="text4602"><tspan
         id="tspan4600"
         x="128.31717"
         y="138.06102"
         style="font-style:normal;font-variant:normal;font-weight:normal;font-stretch:normal;font-family:sans-serif;-inkscape-font-specification:sans-serif;text-align:center;text-anchor:middle;stroke-width:0.26458332px">Split</tspan></text>
    <text
       id="text4606"
       y="138.06102"
       x="152.22417"
       style="font-style:normal;font-variant:normal;font-weight:normal;font-stretch:normal;font-size:5.29166651px;line-height:6.61458302px;font-family:sans-serif;-inkscape-font-specification:sans-serif;letter-spacing:0px;word-spacing:0px;fill:#000000;fill-opacity:1;stroke:none;stroke-width:0.26458332px;stroke-linecap:butt;stroke-linejoin:miter;stroke-opacity:1"
       xml:space="preserve"><tspan
         style="font-style:normal;font-variant:normal;font-weight:normal;font-stretch:normal;font-family:sans-serif;-inkscape-font-specification:sans-serif;text-align:center;text-anchor:middle;stroke-width:0.26458332px"
         y="138.06102"
         x="152.22417"
         id="tspan4604">Merge</tspan></text>
  </g>
</svg>
