<?xml version="1.0" encoding="UTF-8" standalone="no"?>
<svg
   xmlns:dc="http://purl.org/dc/elements/1.1/"
   xmlns:cc="http://creativecommons.org/ns#"
   xmlns:rdf="http://www.w3.org/1999/02/22-rdf-syntax-ns#"
   xmlns:svg="http://www.w3.org/2000/svg"
   xmlns="http://www.w3.org/2000/svg"
   id="svg8"
   version="1.1"
   viewBox="0 0 149.95833 45.010422"
   height="45.010422mm"
   width="149.95833mm">
  <defs
     id="defs2" />
  <metadata
     id="metadata5">
    <rdf:RDF>
      <cc:Work
         rdf:about="">
        <dc:format>image/svg+xml</dc:format>
        <dc:type
           rdf:resource="http://purl.org/dc/dcmitype/StillImage" />
        <dc:title></dc:title>
      </cc:Work>
    </rdf:RDF>
  </metadata>
  <g
     transform="translate(0.89583397,-38.354168)"
     id="layer1">
    <rect
       ry="0"
       y="40.354168"
       x="92.604164"
       height="41.010422"
       width="26.458336"
       id="rect885"
       style="color:#000000;overflow:visible;opacity:1;fill:#e6e6e6;fill-opacity:1;stroke:none;stroke-width:0.77638775;stroke-linecap:round;stroke-linejoin:round;stroke-miterlimit:4;stroke-dasharray:3.10555087, 1.55277544;stroke-dashoffset:0;stroke-opacity:1" />
    <rect
       style="color:#000000;overflow:visible;opacity:1;fill:#e6e6e6;fill-opacity:1;stroke:none;stroke-width:0.77638775;stroke-linecap:round;stroke-linejoin:round;stroke-miterlimit:4;stroke-dasharray:3.10555087, 1.55277544;stroke-dashoffset:0;stroke-opacity:1"
       id="rect883"
       width="26.458336"
       height="41.010422"
       x="60.854168"
       y="40.354168"
       ry="0" />
    <rect
       ry="0"
       y="40.354168"
       x="29.104166"
       height="41.010422"
       width="26.458336"
       id="rect881"
       style="color:#000000;overflow:visible;opacity:1;fill:#e6e6e6;fill-opacity:1;stroke:none;stroke-width:0.77638775;stroke-linecap:round;stroke-linejoin:round;stroke-miterlimit:4;stroke-dasharray:3.10555087, 1.55277544;stroke-dashoffset:0;stroke-opacity:1" />
    <path
       id="path817"
       d="m 31.75,56.229167 10.583333,13.229167 10.583333,-5.291667 v -7.9375 L 39.6875,61.520833 52.916666,48.291667 50.270833,43 38.364583,44.322917 Z"
       style="fill:#55ddff;fill-opacity:1;fill-rule:evenodd;stroke:none;stroke-width:0.26458332px;stroke-linecap:butt;stroke-linejoin:miter;stroke-opacity:1" />
    <path
       id="path819"
       d="M 42.333333,69.458334 31.75,56.229167"
       style="fill:none;fill-rule:evenodd;stroke:#0000ff;stroke-width:0.80000001;stroke-linecap:round;stroke-linejoin:miter;stroke-miterlimit:4;stroke-dasharray:none;stroke-opacity:1" />
    <path
       style="fill:none;fill-rule:evenodd;stroke:#0000ff;stroke-width:0.69999999;stroke-linecap:round;stroke-linejoin:miter;stroke-miterlimit:4;stroke-dasharray:2.8, 1.4;stroke-dashoffset:0;stroke-opacity:1"
       d="M 42.333333,69.458334 38.364583,44.322917"
       id="path823" />
    <path
       style="fill:none;fill-rule:evenodd;stroke:#0000ff;stroke-width:0.80000001;stroke-linecap:round;stroke-linejoin:miter;stroke-miterlimit:4;stroke-dasharray:none;stroke-opacity:1"
       d="M 38.364583,44.322917 31.75,56.229167"
       id="path825" />
    <path
       style="fill:none;fill-opacity:1;fill-rule:evenodd;stroke:#000000;stroke-width:0.26458332px;stroke-linecap:round;stroke-linejoin:round;stroke-opacity:1"
       d="m 31.75,56.229167 10.583333,13.229167 10.583333,-5.291667 v -7.9375 L 39.6875,61.520833 52.916666,48.291667 50.270833,43 38.364583,44.322917 Z"
       id="path821" />
    <g
       transform="translate(0.165018,-2.1333967)"
       id="g849">
      <path
         style="fill:#c83737;fill-rule:evenodd;stroke:none;stroke-width:0.26458332px;stroke-linecap:butt;stroke-linejoin:miter;stroke-opacity:1"
         d="m 37.651594,80.662021 c 3.098045,-2.160834 6.247346,-3.137085 9.387843,-3.858703 L 46.93921,75.700831 c -3.214956,1.138642 -7.008144,2.045752 -9.287616,4.96119 z"
         id="path827" />
      <path
         style="fill:#c83737;fill-rule:evenodd;stroke:none;stroke-width:0.26458332px;stroke-linecap:butt;stroke-linejoin:miter;stroke-opacity:1"
         d="m 38.687263,75.634013 c 2.361809,1.68335 4.49322,3.432548 6.080382,5.863224 -0.949457,-3.264645 -3.195341,-4.900948 -5.245163,-6.598215 z"
         id="path829" />
    </g>
    <path
       id="path831"
       d="m 40.109712,56.564365 c -5.069118,2.900649 -0.582948,7.398257 2.305198,6.481287 2.888145,-0.91697 2.609943,-5.719099 -1.151378,-5.731763 4.078336,-1.115852 6.325825,6.131 1.594322,7.173084 -5.23522,1.153025 -9.491629,-5.890122 -2.748109,-7.922608 z"
       style="fill:#c83737;fill-rule:evenodd;stroke:none;stroke-width:0.26458332px;stroke-linecap:butt;stroke-linejoin:miter;stroke-opacity:1" />
    <path
       style="fill:#55ddff;fill-opacity:1;fill-rule:evenodd;stroke:none;stroke-width:0.26458332px;stroke-linecap:butt;stroke-linejoin:miter;stroke-opacity:1"
       d="m 63.500001,56.229167 10.583333,13.229167 10.583333,-5.291667 v -7.9375 L 71.437501,61.520833 84.666667,48.291667 82.020834,43 70.114584,44.322917 Z"
       id="path833" />
    <path
       style="fill:none;fill-rule:evenodd;stroke:#0000ff;stroke-width:0.80000001;stroke-linecap:round;stroke-linejoin:miter;stroke-miterlimit:4;stroke-dasharray:none;stroke-opacity:1"
       d="M 74.083334,69.458334 63.500001,56.229167"
       id="path835" />
    <path
       id="path837"
       d="M 84.666667,64.166667 63.5,56.229167"
       style="fill:none;fill-rule:evenodd;stroke:#0000ff;stroke-width:0.69999999;stroke-linecap:round;stroke-linejoin:miter;stroke-miterlimit:4;stroke-dasharray:2.8, 1.4;stroke-dashoffset:0;stroke-opacity:1" />
    <path
       id="path839"
       d="M 84.666667,64.166667 74.083333,69.458333"
       style="fill:none;fill-rule:evenodd;stroke:#0000ff;stroke-width:0.80000001;stroke-linecap:round;stroke-linejoin:miter;stroke-miterlimit:4;stroke-dasharray:none;stroke-opacity:1" />
    <path
       id="path841"
       d="m 63.500001,56.229167 10.583333,13.229167 10.583333,-5.291667 v -7.9375 L 71.437501,61.520833 84.666667,48.291667 82.020834,43 70.114584,44.322917 Z"
       style="fill:none;fill-opacity:1;fill-rule:evenodd;stroke:#000000;stroke-width:0.26458332px;stroke-linecap:round;stroke-linejoin:round;stroke-opacity:1" />
    <g
       transform="translate(31.693303,-2.1166667)"
       id="g855">
      <path
         id="path851"
         d="m 37.651594,80.662021 c 3.098045,-2.160834 6.247346,-3.137085 9.387843,-3.858703 L 46.93921,75.700831 c -3.214956,1.138642 -7.008144,2.045752 -9.287616,4.96119 z"
         style="fill:#c83737;fill-rule:evenodd;stroke:none;stroke-width:0.26458332px;stroke-linecap:butt;stroke-linejoin:miter;stroke-opacity:1" />
      <path
         id="path853"
         d="m 38.687263,75.634013 c 2.361809,1.68335 4.49322,3.432548 6.080382,5.863224 -0.949457,-3.264645 -3.195341,-4.900948 -5.245163,-6.598215 z"
         style="fill:#c83737;fill-rule:evenodd;stroke:none;stroke-width:0.26458332px;stroke-linecap:butt;stroke-linejoin:miter;stroke-opacity:1" />
    </g>
    <path
       id="path859"
       d="m 95.25,56.229167 10.58333,13.229167 10.58334,-5.291667 v -7.9375 L 103.1875,61.520833 116.41667,48.291667 113.77083,43 101.86458,44.322917 Z"
       style="fill:#55ddff;fill-opacity:1;fill-rule:evenodd;stroke:none;stroke-width:0.26458332px;stroke-linecap:butt;stroke-linejoin:miter;stroke-opacity:1" />
    <path
       id="path861"
       d="M 105.83333,69.458334 95.25,56.229167"
       style="fill:none;fill-rule:evenodd;stroke:#0000ff;stroke-width:0.80000001;stroke-linecap:round;stroke-linejoin:miter;stroke-miterlimit:4;stroke-dasharray:none;stroke-opacity:1" />
    <path
       style="fill:none;fill-rule:evenodd;stroke:#0000ff;stroke-width:0.69999999;stroke-linecap:round;stroke-linejoin:miter;stroke-miterlimit:4;stroke-dasharray:2.8, 1.4;stroke-dashoffset:0;stroke-opacity:1"
       d="M 103.1875,61.520833 95.249999,56.229167"
       id="path863" />
    <path
       id="path877"
       d="m 103.1875,61.520833 2.64583,7.9375"
       style="fill:none;fill-rule:evenodd;stroke:#0000ff;stroke-width:0.69999999;stroke-linecap:round;stroke-linejoin:miter;stroke-miterlimit:4;stroke-dasharray:2.8, 1.4;stroke-dashoffset:0;stroke-opacity:1" />
    <path
       style="fill:none;fill-opacity:1;fill-rule:evenodd;stroke:#000000;stroke-width:0.26458332px;stroke-linecap:round;stroke-linejoin:round;stroke-opacity:1"
       d="m 95.25,56.229167 10.58333,13.229167 10.58334,-5.291667 v -7.9375 L 103.1875,61.520833 116.41667,48.291667 113.77083,43 101.86458,44.322917 Z"
       id="path867" />
    <path
       id="path879"
       d="m 101.38669,73.897744 c 3.30746,0.968851 3.8086,2.53906 3.8086,2.53906 2.15961,-2.902144 5.06052,-4.754119 8.28535,-6.1472 -4.14758,2.658352 -6.44035,5.687665 -8.38558,8.786486 0,0 -1.16931,-4.209495 -3.70837,-5.178346 z"
       style="fill:#88aa00;fill-rule:evenodd;stroke:none;stroke-width:0.26458332px;stroke-linecap:butt;stroke-linejoin:miter;stroke-opacity:1" />
    <path
       style="fill:#c83737;fill-rule:evenodd;stroke:none;stroke-width:0.26458332px;stroke-linecap:butt;stroke-linejoin:miter;stroke-opacity:1"
       d="m 69.768918,60.923543 c 2.779112,5.136756 6.980677,0.758963 6.534344,-2.150201 -0.446333,-2.909164 -5.655324,-2.745395 -5.757556,1.014557 -1.018415,-4.103752 6.279903,-6.178029 7.209017,-1.423052 1.028028,5.261193 -6.114482,9.348672 -7.985804,2.558663 z"
       id="path887" />
  </g>
</svg>
