<?xml version="1.0" encoding="UTF-8" standalone="no"?>
<!-- Created with Inkscape (http://www.inkscape.org/) -->

<svg
   xmlns:dc="http://purl.org/dc/elements/1.1/"
   xmlns:cc="http://creativecommons.org/ns#"
   xmlns:rdf="http://www.w3.org/1999/02/22-rdf-syntax-ns#"
   xmlns:svg="http://www.w3.org/2000/svg"
   xmlns="http://www.w3.org/2000/svg"
   xmlns:xlink="http://www.w3.org/1999/xlink"
   xmlns:sodipodi="http://sodipodi.sourceforge.net/DTD/sodipodi-0.dtd"
   xmlns:inkscape="http://www.inkscape.org/namespaces/inkscape"
   width="142.25725mm"
   height="52.364933mm"
   viewBox="0 0 142.25725 52.364933"
   version="1.1"
   id="svg933"
   inkscape:version="0.92.2 (5c3e80d, 2017-08-06)"
   sodipodi:docname="tess-convex.svg">
  <defs
     id="defs927">
    <linearGradient
       id="e"
       x1="723.72998"
       x2="943.96997"
       y1="1985.2"
       y2="1604.77"
       gradientTransform="matrix(0.06214587,0,0,0.06214587,56.711332,6.8066177)"
       gradientUnits="userSpaceOnUse"
       xlink:href="#b" />
    <linearGradient
       id="b">
      <stop
         stop-color="#660080"
         offset="0"
         id="stop9" />
      <stop
         stop-color="#b03c15"
         offset="1"
         id="stop11" />
    </linearGradient>
  </defs>
  <sodipodi:namedview
     id="base"
     pagecolor="#ffffff"
     bordercolor="#666666"
     borderopacity="1.0"
     inkscape:pageopacity="0.0"
     inkscape:pageshadow="2"
     inkscape:zoom="2.8"
     inkscape:cx="358.20368"
     inkscape:cy="103.53764"
     inkscape:document-units="mm"
     inkscape:current-layer="layer1"
     showgrid="false"
     inkscape:window-width="2560"
     inkscape:window-height="1311"
     inkscape:window-x="0"
     inkscape:window-y="55"
     inkscape:window-maximized="1"
     fit-margin-top="5"
     fit-margin-bottom="3"
     fit-margin-left="30"
     fit-margin-right="30" />
  <metadata
     id="metadata930">
    <rdf:RDF>
      <cc:Work
         rdf:about="">
        <dc:format>image/svg+xml</dc:format>
        <dc:type
           rdf:resource="http://purl.org/dc/dcmitype/StillImage" />
        <dc:title></dc:title>
      </cc:Work>
    </rdf:RDF>
  </metadata>
  <g
     inkscape:label="Layer 1"
     inkscape:groupmode="layer"
     id="layer1"
     transform="translate(-11.695498,-97.365373)">
    <path
       style="fill:#55ddff;fill-opacity:1;fill-rule:evenodd;stroke:none;stroke-width:0.40000001;stroke-linecap:butt;stroke-linejoin:miter;stroke-miterlimit:4;stroke-dasharray:none;stroke-opacity:1"
       d="m 42.71131,120.10714 4.168864,6.54743 16.997802,1.39007 2.80633,-5.39844 0.13431,-4.99821 -1.470658,-6.94833 -4.115815,-3.82168 -11.90625,1.32291 z"
       id="path817"
       inkscape:connector-curvature="0"
       sodipodi:nodetypes="ccccccccc" />
    <path
       style="fill:#0055d4;fill-rule:evenodd;stroke:#2a7fff;stroke-width:0.40000001;stroke-linecap:round;stroke-linejoin:miter;stroke-miterlimit:4;stroke-dasharray:1.59999999, 1.59999999;stroke-dashoffset:0;stroke-opacity:1"
       d="m 49.325892,108.20089 16.022066,2.49877"
       id="path1502"
       inkscape:connector-curvature="0" />
    <path
       inkscape:connector-curvature="0"
       id="path1504"
       d="m 49.325892,108.20089 17.492724,9.4471"
       style="fill:#0055d4;fill-rule:evenodd;stroke:#2a7fff;stroke-width:0.40000001;stroke-linecap:round;stroke-linejoin:miter;stroke-miterlimit:4;stroke-dasharray:1.59999999, 1.59999999;stroke-dashoffset:0;stroke-opacity:1"
       sodipodi:nodetypes="cc" />
    <path
       sodipodi:nodetypes="cc"
       style="fill:#0055d4;fill-rule:evenodd;stroke:#2a7fff;stroke-width:0.40000001;stroke-linecap:round;stroke-linejoin:miter;stroke-miterlimit:4;stroke-dasharray:1.59999999, 1.59999999;stroke-dashoffset:0;stroke-opacity:1"
       d="M 49.325892,108.20089 66.684306,122.6462"
       id="path1506"
       inkscape:connector-curvature="0" />
    <path
       inkscape:connector-curvature="0"
       id="path1508"
       d="m 49.325892,108.20089 14.552084,19.84375"
       style="fill:#0055d4;fill-rule:evenodd;stroke:#2a7fff;stroke-width:0.40000001;stroke-linecap:round;stroke-linejoin:miter;stroke-miterlimit:4;stroke-dasharray:1.59999999, 1.59999999;stroke-dashoffset:0;stroke-opacity:1"
       sodipodi:nodetypes="cc" />
    <path
       sodipodi:nodetypes="cc"
       style="fill:#0055d4;fill-rule:evenodd;stroke:#2a7fff;stroke-width:0.40000001;stroke-linecap:round;stroke-linejoin:miter;stroke-miterlimit:4;stroke-dasharray:1.59999999, 1.59999999;stroke-dashoffset:0;stroke-opacity:1"
       d="m 49.325892,108.20089 -2.445718,18.45368"
       id="path1510"
       inkscape:connector-curvature="0" />
    <text
       xml:space="preserve"
       style="font-style:normal;font-weight:normal;font-size:5.29166651px;line-height:6.61458302px;font-family:Sans;letter-spacing:0px;word-spacing:0px;fill:#000000;fill-opacity:1;stroke:none;stroke-width:0.26458332px;stroke-linecap:butt;stroke-linejoin:miter;stroke-opacity:1"
       x="55.230968"
       y="139.92969"
       id="text1516"><tspan
         sodipodi:role="line"
         id="tspan1514"
         x="55.230968"
         y="139.92969"
         style="text-align:center;text-anchor:middle;stroke-width:0.26458332px">Convex</tspan></text>
    <g
       id="g1534"
       transform="translate(0.23623512,-0.14174107)">
      <path
         transform="matrix(-0.716824,0.69725415,0.69725415,0.716824,0,0)"
         d="M 58.708186,123.13119 A 15.541816,15.541816 0 0 1 45.085895,138.57572 15.541816,15.541816 0 0 1 28.093408,126.94148 15.541816,15.541816 0 0 1 37.56544,108.6554"
         sodipodi:open="true"
         sodipodi:end="4.3437147"
         sodipodi:start="6.281789"
         sodipodi:ry="15.541816"
         sodipodi:rx="15.541816"
         sodipodi:cy="123.15289"
         sodipodi:cx="43.166386"
         sodipodi:type="arc"
         id="path1528"
         style="color:#000000;overflow:visible;opacity:0.5;fill:none;fill-opacity:1;stroke:#999999;stroke-width:0.65291619;stroke-linecap:round;stroke-linejoin:round;stroke-miterlimit:4;stroke-dasharray:2.61166464, 2.61166464;stroke-dashoffset:0;stroke-opacity:1" />
      <path
         inkscape:connector-curvature="0"
         id="path1530"
         d="m 42.002604,129.1077 1.984375,-1.67727 -2.527716,-0.92132 z"
         style="fill:#cccccc;fill-rule:evenodd;stroke:none;stroke-width:0.26458332px;stroke-linecap:butt;stroke-linejoin:miter;stroke-opacity:1" />
    </g>
    <path
       inkscape:connector-curvature="0"
       style="fill:#55ddff;fill-opacity:1;stroke:#000000;stroke-width:0.25;stroke-miterlimit:4;stroke-dasharray:none"
       d="m 106.70884,103.31444 c -0.14831,0 -0.29664,0.0651 -0.37702,0.19614 l -0.80051,1.28911 -0.37564,0.0367 -1.03476,-1.10892 c -0.20792,-0.22526 -0.63208,-0.14208 -0.7395,0.14693 l -0.5302,1.41733 -0.36525,0.11085 -1.22673,-0.88368 c -0.24951,-0.18018 -0.64872,-0.0138 -0.70001,0.28902 l -0.24256,1.49495 -0.334763,0.17812 -1.379208,-0.62792 c -0.279308,-0.12753 -0.637625,0.11297 -0.626536,0.42 l 0.05267,1.51782 -0.291089,0.23842 -1.47832,-0.34654 c -0.300099,-0.0707 -0.604358,0.23357 -0.533664,0.53366 l 0.346535,1.47764 -0.237723,0.29109 -1.517825,-0.0533 c -0.304952,-0.009 -0.546141,0.34654 -0.418615,0.62792 l 0.627229,1.37921 -0.180198,0.33614 -1.49426,0.24257 c -0.304952,0.05 -0.46921,0.44911 -0.29109,0.69862 l 0.88505,1.22673 -0.110888,0.36734 -1.417329,0.5295 c -0.288318,0.10739 -0.372179,0.5302 -0.147623,0.74158 l 1.108912,1.03268 -0.03743,0.37633 -1.289112,0.79704 c -0.261981,0.16218 -0.261981,0.59466 0,0.75545 l 1.289112,0.79842 0.03672,0.37633 -1.108912,1.03406 c -0.225248,0.20999 -0.141387,0.63277 0.146931,0.74021 l 1.417329,0.53019 0.110888,0.36594 -0.882278,1.22812 c -0.180199,0.24951 -0.01386,0.64872 0.291089,0.69792 l 1.492875,0.24258 0.180198,0.33614 -0.627922,1.37782 c -0.128911,0.28001 0.112969,0.6404 0.418615,0.62792 l 1.516438,-0.0526 0.239109,0.29109 -0.347921,1.47763 c -0.06931,0.2994 0.234258,0.60297 0.533664,0.53366 l 1.477627,-0.34861 0.29109,0.23772 -0.05198,1.51782 c -0.01179,0.30634 0.346535,0.54753 0.627228,0.41861 l 1.379201,-0.62791 0.334756,0.18019 0.24258,1.49427 c 0.0506,0.30495 0.44911,0.46852 0.7,0.2897 l 1.22674,-0.88505 0.36594,0.11086 0.53019,1.41732 c 0.10807,0.28763 0.5309,0.37288 0.7416,0.14695 l 1.03405,-1.10892 0.37634,0.0381 0.79841,1.2891 c 0.1608,0.25991 0.59328,0.2606 0.75545,0 l 0.79842,-1.2891 0.37427,-0.0388 1.03474,1.10891 c 0.20931,0.22593 0.63277,0.14068 0.74021,-0.14694 l 0.53089,-1.41663 0.36594,-0.11228 1.22812,0.88505 c 0.2495,0.17881 0.64801,0.0138 0.69722,-0.2897 l 0.24397,-1.49357 0.33545,-0.1802 1.37713,0.62793 c 0.28068,0.12821 0.639,-0.11085 0.62792,-0.41932 l -0.052,-1.51781 0.29109,-0.23773 1.47624,0.34654 c 0.30079,0.0714 0.60505,-0.23288 0.53504,-0.53229 l -0.34861,-1.47832 0.23842,-0.29109 1.51783,0.0526 c 0.30495,0.0125 0.54751,-0.34793 0.41929,-0.62793 l -0.62791,-1.37782 0.17881,-0.33682 1.49426,-0.24259 c 0.30495,-0.0485 0.46991,-0.44772 0.2897,-0.69791 l -0.88366,-1.22813 0.11086,-0.36594 1.41733,-0.53019 c 0.28831,-0.1074 0.37287,-0.53021 0.14763,-0.7402 l -1.10892,-1.03407 0.0375,-0.37633 1.28911,-0.79911 c 0.26199,-0.1608 0.26337,-0.59327 0,-0.75546 l -1.28911,-0.79702 -0.036,-0.37634 1.10892,-1.03406 c 0.22525,-0.21069 0.14069,-0.63347 -0.14763,-0.74159 l -1.41733,-0.52951 -0.11086,-0.36525 0.88366,-1.22673 c 0.1802,-0.2495 0.0159,-0.64802 -0.28762,-0.69793 l -1.49496,-0.24256 -0.1802,-0.33614 0.62862,-1.37922 c 0.1289,-0.27999 -0.11085,-0.63901 -0.41931,-0.62723 l -1.51644,0.0526 -0.23981,-0.29109 0.34932,-1.47624 c 0.0692,-0.3001 -0.23564,-0.60505 -0.53505,-0.53367 l -1.47624,0.34655 -0.29109,-0.23843 0.0526,-1.51782 c 0.0118,-0.30634 -0.34791,-0.54614 -0.62791,-0.41861 l -1.37922,0.62792 -0.33474,-0.18019 -0.24258,-1.49427 c -0.05,-0.30287 -0.44911,-0.46852 -0.69861,-0.28901 l -1.22882,0.88436 -0.36525,-0.11086 -0.5295,-1.41595 c -0.1074,-0.28901 -0.53089,-0.37216 -0.74159,-0.14761 l -1.03267,1.10891 -0.37634,-0.036 -0.79841,-1.2891 c -0.0812,-0.13169 -0.22872,-0.19684 -0.37773,-0.19684 z m -0.0222,2.70505 c 0.49485,0.0138 0.88712,0.41723 0.88712,0.9107 -0.002,0.50248 -0.41029,0.90792 -0.91208,0.90792 -0.50247,0 -0.91001,-0.40544 -0.91276,-0.90792 0,-0.51426 0.42485,-0.92734 0.9391,-0.91208 z m 2.09307,1.5012 c 3.24357,0.60712 6.05743,2.61079 7.6903,5.47733 l -1.07633,2.43061 c -0.18574,0.42069 0.003,0.91277 0.42277,1.0992 l 2.07229,0.9204 c 0.0651,0.64872 0.0735,1.30159 0.025,1.95099 -0.16148,2.25455 -1.15049,4.29427 -2.18803,5.87724 -0.30771,0.41031 -0.64454,0.79843 -1.00494,1.16228 l -1.9302,-0.41446 c -0.4505,-0.097 -0.89129,0.18921 -0.98763,0.63971 l -0.45743,2.13743 c -2.9816,1.35148 -6.40259,1.33416 -9.37032,-0.0443 l -0.45743,-2.13744 c -0.097,-0.45049 -0.53851,-0.73604 -0.98762,-0.63971 l -1.887235,0.40475 c -1.308517,-1.3584 -2.242082,-3.25395 -2.775747,-4.88821 -0.375645,-1.24476 -0.478219,-2.74942 -0.329209,-4.13764 l 1.965548,-0.87326 c 0.421387,-0.18713 0.609903,-0.67922 0.422773,-1.09921 l -1.067328,-1.95724 c 1.590604,-2.99822 4.770408,-5.24931 7.766558,-5.90496 l 1.40554,1.47486 c 0.31744,0.33266 0.84347,0.34445 1.17614,0.0278 z m -4.54308,1.84356 c 0.73188,0.41377 0.36941,0.62792 0.13169,0.77416 l -2.36338,1.34318 c -0.13168,0.7 -1.0604,0.8996 -1.30575,1.42633 -0.38534,0.96754 -0.52187,1.64951 -1.212867,2.39595 -0.178114,-0.23357 -0.200987,-0.57733 -0.180199,-0.88436 l -0.205144,1.30436 -0.471289,0.54753 c -0.921784,1.73822 -0.916239,2.42297 -1.004952,4.30397 l 0.291089,-0.3202 c -0.270297,1.40692 -0.33406,1.88515 -0.345149,3.42238 0.418614,0.73327 0.900992,1.39515 1.431883,1.98911 0.533667,-0.10885 1.029898,-0.23426 1.405548,-0.32089 0.45465,-0.10539 0.81298,-0.0375 1.1297,0.16772 0.31051,0.201 0.48238,0.54545 0.59119,1.02782 0.10885,0.47822 0.2204,1.05 0.37079,1.63704 2.14853,1.02575 5.37476,1.04653 7.31328,0.4602 l -0.56484,-0.85941 -0.67368,0.22386 -0.11989,-1.73268 -0.60297,0.97723 0.42555,-2.6295 -0.94258,1.49911 0.80741,-2.87833 -0.53365,0.27031 -0.16426,-1.53307 -1.49841,0.91623 -0.56972,1.02575 -0.11085,-0.481 -0.7915,0.8012 -0.4685,-0.81299 -0.27515,0.11922 -0.22873,-0.98277 c -1.50395,0.48791 -1.70357,0.3687 -3.18465,0.0506 l -0.10952,0.57732 -0.909315,-0.44356 -0.237712,-0.81782 -0.06233,-0.21139 -0.09219,-0.31882 c 0.335451,-0.4796 0.799108,-0.94673 1.262777,-1.29743 h 0.62237 c 1.17268,0.99109 1.5802,1.12278 2.98923,1.44159 l -0.16081,0.66812 0.37219,-0.42 0.48238,-0.16218 0.40475,-1.2108 c -0.28555,0.22734 -0.57179,0.49763 -0.95644,0.48239 -1.56426,-0.17535 -1.85743,-0.32574 -3.07862,-1.14704 -0.29386,-0.91832 -0.20446,-0.74644 0.32574,-1.53999 l 0.89129,-0.27239 0.43387,-0.4207 -0.88229,-0.56553 -1.01188,0.25644 -0.201,0.45188 -0.14138,-0.47407 -0.590496,-0.35553 1.693176,-1.80685 c -0.2703,-0.30841 -0.51496,-0.0762 -0.85247,0.0554 l 0.47822,-0.55722 0.25988,-0.65634 0.12476,0.0914 0.0624,0.38812 0.28415,0.18504 0.0118,0.19823 0.5794,-0.52951 0.54544,-0.92872 -0.5697,0.23912 -0.86425,-0.32575 0.0845,-0.24812 c 0.12337,-0.31396 0.74992,-0.31881 1.00773,-1.03545 l 1.82971,-0.85455 c 0.55446,-0.28555 0.72217,0.24397 0.42762,0.77623 l -0.90793,1.47971 1.5317,-1.51643 c 0.41792,-1.22951 0.15941,-2.07714 -1.15397,-2.42574 z m 9.43547,1.35495 c -0.22456,-0.004 -0.49762,0.0346 -0.82476,0.12061 2.44514,-0.0396 1.10892,2.77643 -0.17535,3.98861 0.18713,0.5614 0.46298,0.76931 0.93564,1.07219 l -0.16633,-0.74713 c 1.43465,-1.9309 1.91633,-4.34348 0.2308,-4.43566 z m -1.70634,1.27873 c -0.51981,0.499 -1.00774,0.97722 -1.18516,1.64257 h 0.27862 l 0.24951,1.08534 0.18989,-0.219 0.49347,0.0222 -0.2495,-0.52674 c 0.30079,-1.14703 0.5891,-0.98416 0.22317,-2.00298 z m -6.03527,2.25386 -0.38327,0.92317 -0.52673,0.79009 c 0.74159,-0.42969 1.2614,-0.37771 2.09169,-0.3687 l 0.35346,0.42277 0.01,-0.67575 0.67574,-0.289 -0.62516,-0.91485 c -0.24673,-0.29942 -1.4693,-0.17327 -1.59614,0.11085 z m -10.129914,0.0298 c 0.493466,0.0138 0.88713,0.41861 0.88713,0.91208 -0.0035,0.50177 -0.410991,0.90792 -0.913467,0.90792 -0.502476,0 -0.910002,-0.40615 -0.91208,-0.90792 0,-0.51495 0.424852,-0.92733 0.938417,-0.91208 z m 10.942194,0.003 c -0.20375,0.12822 -0.31465,0.39367 -0.27723,0.66119 0.0263,0.17466 0.11367,0.3306 0.24258,0.42971 -0.35139,0.0138 -0.63069,-0.16219 -0.66811,-0.41585 -0.0429,-0.29663 0.2495,-0.59604 0.65563,-0.66949 l 0.0471,-0.007 z m 10.82924,0.0388 c 0.49346,0.016 0.88573,0.42001 0.88713,0.91348 -0.003,0.50248 -0.411,0.90792 -0.91348,0.90792 -0.50386,0 -0.91137,-0.40544 -0.91484,-0.90792 0,-0.51426 0.42554,-0.92734 0.9398,-0.91208 z m -9.11388,3.7426 -0.50595,1.78396 0.0332,1.37227 0.62514,-1.2406 z m -9.149921,0.0852 0.339599,0.0776 c 0.665362,0.82614 0.675062,0.6099 0.524652,1.57465 -0.399902,0.17328 -0.550993,0.15942 -0.910689,-0.0278 -0.232872,-0.57248 -0.08665,-1.05001 0.04639,-1.62455 z m 0.618218,8.98913 c 0.493453,0.0152 0.885743,0.4193 0.885743,0.91277 -0.003,0.50179 -0.4103,0.90792 -0.912776,0.90792 -0.501788,0 -0.909996,-0.40613 -0.912081,-0.90792 0,-0.51496 0.424858,-0.92871 0.939114,-0.91277 z m 13.520413,0.0429 c 0.49347,0.0138 0.88575,0.41861 0.88575,0.91278 -0.002,0.50247 -0.4103,0.90792 -0.91208,0.90792 -0.50248,0 -0.91001,-0.40545 -0.91277,-0.90792 0,-0.51427 0.42484,-0.92665 0.9391,-0.91208 z"
       id="path24" />
    <text
       id="text1552"
       y="139.92969"
       x="105.81173"
       style="font-style:normal;font-weight:normal;font-size:5.29166651px;line-height:6.61458302px;font-family:Sans;letter-spacing:0px;word-spacing:0px;fill:#000000;fill-opacity:1;stroke:none;stroke-width:0.26458332px;stroke-linecap:butt;stroke-linejoin:miter;stroke-opacity:1"
       xml:space="preserve"><tspan
         style="text-align:center;text-anchor:middle;stroke-width:0.26458332px"
         y="139.92969"
         x="105.81173"
         id="tspan1550"
         sodipodi:role="line">... Not convex</tspan><tspan
         style="font-size:1.41111112px;text-align:center;text-anchor:middle;stroke-width:0.26458332px"
         y="146.54427"
         x="105.81173"
         sodipodi:role="line"
         id="tspan1554">(at all)</tspan></text>
    <path
       sodipodi:nodetypes="ccccccccc"
       inkscape:connector-curvature="0"
       id="path1512"
       d="m 42.71131,120.10714 4.168864,6.54743 16.997802,1.39007 2.80633,-5.39844 0.13431,-4.99821 -1.470658,-6.94833 -4.115815,-3.82168 -11.90625,1.32291 z"
       style="fill:none;fill-opacity:1;fill-rule:evenodd;stroke:#000000;stroke-width:0.30000001;stroke-linecap:butt;stroke-linejoin:miter;stroke-miterlimit:4;stroke-dasharray:none;stroke-opacity:1" />
    <path
       inkscape:connector-curvature="0"
       d="m 50.19543,108.27048 a 0.91678518,0.91678518 0 0 1 -0.911448,0.91805 0.91678518,0.91678518 0 0 1 -0.922073,-0.90738 0.91678518,0.91678518 0 0 1 0.903288,-0.92607 0.91678518,0.91678518 0 0 1 0.930067,0.89918"
       id="path4520"
       style="color:#000000;overflow:visible;opacity:0.5;fill:#ff9955;fill-opacity:1;stroke:none;stroke-width:0.69300294;stroke-linecap:round;stroke-linejoin:miter;stroke-miterlimit:4;stroke-dasharray:none;stroke-dashoffset:0;stroke-opacity:1" />
    <path
       style="color:#000000;overflow:visible;opacity:1;fill:#ffffff;fill-opacity:1;stroke:none;stroke-width:0.48987785;stroke-linecap:round;stroke-linejoin:miter;stroke-miterlimit:4;stroke-dasharray:none;stroke-dashoffset:0;stroke-opacity:1"
       id="path1526"
       d="m 49.926712,108.27085 a 0.64806762,0.64806762 0 0 1 -0.644294,0.64897 0.64806762,0.64806762 0 0 1 -0.651805,-0.64142 0.64806762,0.64806762 0 0 1 0.638526,-0.65463 0.64806762,0.64806762 0 0 1 0.657456,0.63562"
       inkscape:connector-curvature="0" />
  </g>
</svg>
